<svg xmlns="http://www.w3.org/2000/svg" viewBox="0 0 1200 630">
  <defs>
    <linearGradient id="sky" x1="0" y1="0" x2="0" y2="1"><stop stop-color="#70d2ef"/><stop offset="1" stop-color="#dff7ff"/></linearGradient>
    <filter id="shadow"><feDropShadow dx="0" dy="12" stdDeviation="10" flood-color="#294b58" flood-opacity=".18"/></filter>
  </defs>
  <rect width="1200" height="630" fill="url(#sky)"/>
  <g fill="#fff" opacity=".72"><ellipse cx="165" cy="126" rx="125" ry="45"/><ellipse cx="1015" cy="168" rx="145" ry="52"/><ellipse cx="740" cy="520" rx="240" ry="75"/></g>
  <g filter="url(#shadow)">
    <path d="M690 155h330l-46 216-126 91-120-91Z" fill="#6daf78"/>
    <path d="M706 172h299l-38 81H730Z" fill="#f4df9c"/>
    <rect x="795" y="205" width="125" height="112" rx="16" fill="#fff7e6" stroke="#294b58" stroke-width="8"/>
    <path d="M775 211l82-66 82 66Z" fill="#f47d67" stroke="#294b58" stroke-width="8"/>
    <circle cx="858" cy="262" r="21" fill="#75d3ef" stroke="#294b58" stroke-width="7"/>
  </g>
  <path d="M123 487C244 321 384 508 509 305c81-132 115-143 181-91" fill="none" stroke="#fff" stroke-width="26" stroke-linecap="round"/>
  <g transform="translate(352 390)" filter="url(#shadow)"><rect width="130" height="78" rx="17" fill="#24567b" stroke="#f4c65e" stroke-width="8"/><path d="M14 15h82L55 48 14 15Z" fill="#fff7e6"/><circle cx="35" cy="82" r="17" fill="#294b58" stroke="#fff7e6" stroke-width="6"/><circle cx="99" cy="82" r="17" fill="#294b58" stroke="#fff7e6" stroke-width="6"/></g>
  <text x="88" y="164" font-family="system-ui,'Microsoft YaHei',sans-serif" font-size="86" font-weight="900" fill="#173d62">云路邮差</text>
  <text x="91" y="230" font-family="system-ui,'Microsoft YaHei',sans-serif" font-size="32" font-weight="700" fill="#294b58">一指画路 · 完成配送 · 重建浮空小镇</text>
</svg>
